<svg xmlns="http://www.w3.org/2000/svg" width="54" height="56" fill="none" viewBox="0 0 54 56"><path stroke="#E36E2A" stroke-linecap="round" stroke-linejoin="round" stroke-miterlimit="10" stroke-width="2.5" d="M36.2 23.8H18.5V35.0001H36.2V23.8Z"/><path stroke="#E36E2A" stroke-linecap="round" stroke-linejoin="round" stroke-miterlimit="10" stroke-width="2.5" d="M25 29.3999H29.7"/><path stroke="#E36E2A" stroke-linejoin="round" stroke-miterlimit="10" stroke-width="2.5" d="M22 9.7L22.2 2H2L2.30002 9.7"/><path stroke="#E36E2A" stroke-linejoin="round" stroke-miterlimit="10" stroke-width="2.5" d="M21.4001 23.6001L21.8001 14.3H2.6001L3.6001 44.0001H20.6001L20.9001 35.2001"/><path stroke="#E36E2A" stroke-linecap="round" stroke-linejoin="round" stroke-miterlimit="10" stroke-width="2.5" d="M17.8001 44.2V54.5999H6.1001V44.2"/><path stroke="#E36E2A" stroke-linejoin="round" stroke-miterlimit="10" stroke-width="2.5" d="M32.6999 9.7L32.3999 2H52.5999L52.2999 9.7"/><path stroke="#E36E2A" stroke-linejoin="round" stroke-miterlimit="10" stroke-width="2.5" d="M32.6999 9.7L32.3999 2H52.5999L52.2999 9.7"/><path stroke="#E36E2A" stroke-linejoin="round" stroke-miterlimit="10" stroke-width="2.5" d="M33.1999 23.6001L32.8999 14.3H52.0999L50.9999 44.0001H33.9999L33.6999 35.2001"/><path stroke="#E36E2A" stroke-linecap="round" stroke-linejoin="round" stroke-miterlimit="10" stroke-width="2.5" d="M36.8999 44.2V54.5999H48.5999V44.2"/></svg>